<svg xmlns="http://www.w3.org/2000/svg"  viewBox="0 0 50 50" width="50px" height="50px"><path d="M 12 0 C 10.90625 0 10 0.90625 10 2 L 10 4 L 4 4 C 2.839844 4 2 4.839844 2 6 L 2 13 L 48 13 L 48 6 C 48 4.839844 47.160156 4 46 4 L 40 4 L 40 2 C 40 0.90625 39.09375 0 38 0 L 36 0 C 34.90625 0 34 0.90625 34 2 L 34 4 L 16 4 L 16 2 C 16 0.90625 15.09375 0 14 0 Z M 12 2 L 14 2 L 14 8 L 12 8 Z M 36 2 L 38 2 L 38 8 L 36 8 Z M 2 15 L 2 46 C 2 47.105469 2.894531 48 4 48 L 34.027344 48 C 35.695313 49.25 37.757813 50 40 50 C 45.515625 50 50 45.515625 50 40 C 50 37.757813 49.25 35.695313 48 34.027344 L 48 15 Z M 24.5 20 L 27.015625 26.5 L 34 26.875 L 28.574219 31.265625 L 29.6875 35.441406 L 30.371094 38 L 24.5 34.214844 L 18.628906 38 L 20.429688 31.265625 L 15 26.875 L 21.984375 26.5 Z M 40 32 C 44.410156 32 48 35.589844 48 40 C 48 44.410156 44.410156 48 40 48 C 35.589844 48 32 44.410156 32 40 C 32 35.589844 35.589844 32 40 32 Z M 44.300781 35.402344 L 38.902344 41.699219 L 35.597656 39.199219 L 34.402344 40.800781 L 39.097656 44.402344 L 45.800781 36.699219 Z"/></svg>