<svg xmlns="http://www.w3.org/2000/svg" xmlns:xlink="http://www.w3.org/1999/xlink" viewBox="0,0,256,256" width="50px" height="50px" fill-rule="nonzero"><g fill="#555555" fill-rule="nonzero" stroke="none" stroke-width="1" stroke-linecap="butt" stroke-linejoin="miter" stroke-miterlimit="10" stroke-dasharray="" stroke-dashoffset="0" font-family="none" font-weight="none" font-size="none" text-anchor="none" style="mix-blend-mode: normal"><g transform="scale(5.12,5.12)"><path d="M43.03125,11c-0.30859,0.00391 -0.64453,0.03125 -0.96875,0.0625c-1.30469,0.12109 -2.73047,0.44531 -4.1875,1.09375c0,0 -5.60937,2.51953 -10.25,4.59375l-11.28125,-3.46875c-0.75391,-0.23047 -1.57031,-0.33203 -2.34375,-0.34375c-0.77344,-0.01172 -1.47266,0.05469 -2.125,0.34375l-1.5625,0.6875c-0.26172,0.11719 -0.57812,0.30469 -0.75,0.6875c-0.17187,0.38281 -0.12109,0.84766 0.03125,1.15625c0.29688,0.60156 0.78125,0.91406 1.46875,1.28125l0.03125,0.03125l6.625,4.03125c-3.33594,1.49219 -7.85156,3.51563 -8.09375,3.625c-0.21094,0.09375 -0.21094,0.05859 -0.375,0c-0.16406,-0.05859 -0.46094,-0.24609 -0.84375,-0.53125c-1.35547,-1 -3.35937,-2.45703 -3.9375,-2.90625c-0.89062,-0.67969 -1.94922,-0.6875 -2.90625,-0.375c-0.47656,0.15625 -0.96094,0.41797 -1.28125,0.9375c-0.32031,0.51953 -0.36328,1.27344 -0.09375,1.875c0.66797,1.5 2.77734,6.14063 3.5625,7.90625c0.42578,0.95703 1.31641,1.61719 2.40625,1.90625c1.08984,0.28906 2.40234,0.27734 3.96875,0.0625c3.13281,-0.43359 7.34766,-1.78906 12.65625,-4.15625c0.41797,-0.1875 0.89844,-0.39453 1.34375,-0.59375l-2.3125,12.21875v0.0625c-0.18359,0.74609 -0.27734,1.32031 -0.03125,1.9375c0.12891,0.31641 0.44531,0.65234 0.84375,0.78125c0.39844,0.12891 0.73828,0.05078 1,-0.0625l1.5625,-0.6875c0.64844,-0.28906 1.17969,-0.78906 1.6875,-1.375c0.50781,-0.58594 0.98438,-1.28516 1.3125,-2h-0.03125l7.4375,-16.09375c3.71094,-1.73828 7.27344,-3.46875 9.875,-4.9375c1.33984,-0.75781 2.4375,-1.44531 3.21875,-2.0625c0.39063,-0.30859 0.6875,-0.58984 0.9375,-0.9375c0.25,-0.34766 0.52344,-0.91797 0.25,-1.53125c-0.62109,-1.39062 -2.17578,-2.42187 -4.28125,-2.9375c-0.78906,-0.19141 -1.63281,-0.29687 -2.5625,-0.28125zM43.03125,13c0.76563,0 1.46875,0.09766 2.09375,0.25c1.44141,0.35156 2.32031,1.05469 2.6875,1.53125c-0.10156,0.10547 -0.17578,0.1875 -0.375,0.34375c-0.62109,0.49219 -1.64062,1.14453 -2.9375,1.875c-2.58984,1.46094 -6.24219,3.24609 -10.0625,5.03125l-0.34375,0.15625l-0.15625,0.34375l-7.59375,16.4375c-0.23047,0.50391 -0.57812,1.05078 -0.96875,1.5c-0.39062,0.44922 -0.84375,0.77344 -1,0.84375l-0.625,0.28125v-0.03125l2.65625,-14.15625l0.375,-1.875l-1.75,0.78125c-1.08203,0.48438 -2.10547,0.94922 -3.0625,1.375c-5.20703,2.32031 -9.28516,3.61328 -12.09375,4c-1.40234,0.19531 -2.49219,0.15234 -3.1875,-0.03125c-0.69531,-0.18359 -0.97266,-0.44141 -1.125,-0.78125c-0.78906,-1.76562 -2.86719,-6.41016 -3.53125,-7.90625c-0.01562,-0.03906 -0.02344,-0.02344 -0.03125,-0.03125c0.03516,-0.02734 0.10156,-0.06641 0.1875,-0.09375c0.34375,-0.11328 0.97656,0.02734 1.0625,0.09375v-0.03125c0.65234,0.50391 2.60938,1.96875 3.96875,2.96875c0.39844,0.29297 0.80078,0.61328 1.34375,0.8125c0.54297,0.19922 1.25,0.1875 1.875,-0.09375c0.28516,-0.125 5.30078,-2.38281 9.625,-4.3125c0.03516,-0.01562 0.05859,0.01563 0.09375,0c0.09766,-0.02734 0.19531,-0.07031 0.28125,-0.125c0.01563,-0.00781 0.01563,-0.02344 0.03125,-0.03125c0.01172,-0.01172 0.01953,-0.01953 0.03125,-0.03125c3.33203,-1.48437 3.89844,-1.74219 7.28125,-3.25c0.03125,-0.00781 0.0625,-0.01953 0.09375,-0.03125c0.01172,-0.00391 0.01953,0.00391 0.03125,0c0.21094,-0.02344 0.40625,-0.10937 0.5625,-0.25c0.01172,-0.01172 0.01953,-0.01953 0.03125,-0.03125c4.59766,-2.04687 10.1875,-4.53125 10.1875,-4.53125c1.26563,-0.5625 2.48047,-0.86719 3.5625,-0.96875c0.26953,-0.02344 0.52734,-0.03125 0.78125,-0.03125zM13.96875,14.9375c0.59375,0.01172 1.25,0.08594 1.78125,0.25l9.125,2.78125c-2.39453,1.07031 -2.64062,1.17578 -4.90625,2.1875l-7.875,-4.78125l0.59375,-0.28125c0.15625,-0.07031 0.6875,-0.16797 1.28125,-0.15625z"></path></g></g></svg>