<svg xmlns="http://www.w3.org/2000/svg" xmlns:xlink="http://www.w3.org/1999/xlink" viewBox="0,0,256,256" width="32px" height="32px" fill-rule="nonzero"><g fill="#555555" fill-rule="nonzero" stroke="none" stroke-width="1" stroke-linecap="butt" stroke-linejoin="miter" stroke-miterlimit="10" stroke-dasharray="" stroke-dashoffset="0" font-family="none" font-weight="none" font-size="none" text-anchor="none" style="mix-blend-mode: normal"><g transform="scale(8,8)"><path d="M16,6c-4.5625,0 -7.91797,0.77734 -10.15625,1.5625c-2.23828,0.78516 -3.4375,1.625 -3.4375,1.625l-0.40625,0.3125v17.5h5v-2h18v2h5v-17.5l-0.40625,-0.3125c0,0 -1.19922,-0.83984 -3.4375,-1.625c-2.23828,-0.78516 -5.59375,-1.5625 -10.15625,-1.5625zM16,8c4.33594,0 7.46484,0.72266 9.5,1.4375c1.75391,0.61328 2.28516,1.04297 2.5,1.1875v4.375h-2v-2.59375l-0.5,-0.28125c0,0 -2.05469,-1.125 -5,-1.125c-2.125,0 -3.73828,0.57813 -4.5,0.90625c-0.76172,-0.32812 -2.375,-0.90625 -4.5,-0.90625c-2.94531,0 -5,1.125 -5,1.125l-0.5,0.28125v2.59375h-2v-4.375c0.21484,-0.14453 0.74609,-0.57422 2.5,-1.1875c2.03516,-0.71484 5.16406,-1.4375 9.5,-1.4375zM11.5,13c1.87109,0 2.96484,0.41406 3.5,0.65625v1.34375h-7v-1.34375c0.53516,-0.24219 1.62891,-0.65625 3.5,-0.65625zM20.5,13c1.87109,0 2.96484,0.41406 3.5,0.65625v1.34375h-7v-1.34375c0.53516,-0.24219 1.62891,-0.65625 3.5,-0.65625zM4,17h24v8h-1v-2h-22v2h-1z"></path></g></g></svg>