<svg xmlns="http://www.w3.org/2000/svg" xmlns:xlink="http://www.w3.org/1999/xlink" viewBox="0,0,256,256" width="32px" height="32px" fill-rule="nonzero"><g fill="#555555" fill-rule="nonzero" stroke="none" stroke-width="1" stroke-linecap="butt" stroke-linejoin="miter" stroke-miterlimit="10" stroke-dasharray="" stroke-dashoffset="0" font-family="none" font-weight="none" font-size="none" text-anchor="none" style="mix-blend-mode: normal"><g transform="scale(8,8)"><path d="M10.25,7c-1.75391,0 -3.37891,0.93359 -4.28125,2.4375l-1.59375,2.6875l-2.09375,0.53125c-1.32812,0.33203 -2.28125,1.53516 -2.28125,2.90625v4.4375c0,1.09375 0.90625,2 2,2h1.15625c0.44531,1.71875 1.99219,3 3.84375,3c1.85156,0 3.39844,-1.28125 3.84375,-3h10.3125c0.44531,1.71875 1.99219,3 3.84375,3c1.85156,0 3.39844,-1.28125 3.84375,-3h1.15625c1.09375,0 2,-0.90625 2,-2v-3.4375c0,-1.37109 -0.94922,-2.57422 -2.28125,-2.90625l-6.09375,-1.53125l-1.59375,-2.6875c-0.90234,-1.50391 -2.52734,-2.4375 -4.28125,-2.4375zM10.25,9h2.75v3h-6.25l0.9375,-1.53125c0.54297,-0.90625 1.50781,-1.46875 2.5625,-1.46875zM15,9h2.75c1.05469,0 2.01953,0.5625 2.5625,1.46875l0.9375,1.53125h-6.25zM5.125,14h17.75l6.375,1.59375c0.44922,0.11328 0.75,0.50391 0.75,0.96875v3.4375h-1.15625c-0.44531,-1.71875 -1.99219,-3 -3.84375,-3c-1.85156,0 -3.39844,1.28125 -3.84375,3h-10.3125c-0.44531,-1.71875 -1.99219,-3 -3.84375,-3c-1.85156,0 -3.39844,1.28125 -3.84375,3h-1.15625v-4.4375c0,-0.46484 0.30078,-0.85547 0.75,-0.96875zM7,19c1.11719,0 2,0.88281 2,2c0,1.11719 -0.88281,2 -2,2c-1.11719,0 -2,-0.88281 -2,-2c0,-1.11719 0.88281,-2 2,-2zM25,19c1.11719,0 2,0.88281 2,2c0,1.11719 -0.88281,2 -2,2c-1.11719,0 -2,-0.88281 -2,-2c0,-1.11719 0.88281,-2 2,-2z"></path></g></g></svg>